<svg xmlns="http://www.w3.org/2000/svg" viewBox="0 0 330 320">
    <path fill="#900" d="M143.7,69.2c0,0-19.7,5-19.7,5s-20-40-17.7-47.9c0.6-22.2,114.7-43.2,116.1-6c-0.2,30.2-11.8,51.9-11.8,51.9 c-33.5-10.2-8.5-8-11.8-44.9C172.2,8.7,112.3,34.4,143.7,69.2z"/>
    <path fill="#FC0" d="M78.8,102.2c-5.1,2.6-84.3,225.5,70.8,217.5c68.8-3.6,165.6-34.6,180-62.8c4.3-49.1-34.4-81.8-34.4-81.8 s7.5-39.3-27.5-73.8C223.1,76.4,91.3,98.3,78.8,102.2z"/>
    <path fill="#C90" d="M77.7,103.1c-48.9,5.3-53.1,77.8-53.1,77.8S-5.7,251.4,1,279.6c5.8,16.5,78.8,43.6,147.6,40.1 c12.5-61.6-32.5-99.9-32.5-99.9S131.5,126.3,77.7,103.1z"/>
    <path fill="#960" d="M271.7,105.4c-3.1-6.9-38.8-31.2-38.8-31.2L63.1,107.1c0,0-10.5,33.3-3,89.8c-6.9-0.3-19.2,6.4-16.7,28.9 c2.3,17.3,5.3,20.6,21,20.6c7.9,0,25.3-18.4,25.3-30.5c0-7.9-6-12.2-12.3-14.3c1.1-24.5,1.7-71.7,13.3-91.4 C240.2,78.5,273,109,271.7,105.4z"/>
    <path fill="#999" d="M86.7,107.1c-11.7,19.7-15.2,68.9-16.3,93.4c6.4,2.1,12.3,6.5,12.3,14.3c0,12.1-14.3,27.9-22.1,27.9 s-14.3-9.8-14.3-21.9c0-12.1,6.4-21.9,14.3-21.9c0.2,0,0.5,0,0.7,0c-1.2-28.3-0.9-56.6,0.8-84.8c1.4-23.8,8.9-30.9,8.9-30.9 s39-22.9,109.2-23.9s84.6,19,84.6,19l6.9,26.9C271.6,105.2,244.9,72.1,86.7,107.1z"/>
    <path fill="#960" d="M142.8,167.4c2.7-0.6,5.6-1.2,8.4-1.7c-1.1-5-2.1-9.8-2.7-13.3c3.4,0,6.8,0.1,10.2,0.1 c-0.3-8.3-5.6-8.2-12.3-7.4c-3.9-6.1-6.3-16.2-14.9-12.1c2.9,3.9,5.4,8,7.6,12.3c-2.8,0.1-5.6,0.4-8.3,0.8c0.7,2.2,0.8,4.2,1.1,7.5 c2.9-0.5,5.9-0.9,8.8-1.1C141.2,156.5,142,161.8,142.8,167.4 M181,142.2c0.1,6.7,6.6,20.3,13.5,12.2 C197.9,148.9,181.4,128,181,142.2 M228.7,165.5c1.7-0.3,3.6-0.6,5.6-0.9c-0.8-4.2-2.1-8.3-3.8-12.1c2.4-0.7,4.7-1.5,6.9-2.5 c-1.9-4.4-4.3-9.6-6.8-14.8c-2.3,1-4.6,1.9-6.8,2.8c-3.4-7.2-7.1-14.7-10-21.2c-10.1,3.3,3.7,15.9,5.3,23.5c-1.9,1-3.6,2-5.3,3 c2.3,4.8,4.4,9.2,5.7,12.7c1.9-0.6,3.8-1.2,5.8-1.8C227.8,159.7,227.7,162.3,228.7,165.5 M253.5,125.8c0.5,7.2,4.5,21.5,13,21.1 C276.7,141.4,258.4,108.7,253.5,125.8 M147,208.9c-1.9,9.5,22.4,24.6,23.8,9.7C171.3,206.7,153.2,196.6,147,208.9 M222.3,228.7 c1.7-0.7,3.3-1.4,5-2.1c-3.6-5.5-7.4-11.3-10.2-16.3c2.4-0.2,4.8-0.1,7.2,0c-3.1-7.2-3.8-9.4-11.3-9.3c-0.9-5.6-2-11.9-9-9.6 c1.3,3,2.2,6.1,2.7,9.4c-2.8,0.4-5.5,1-8.2,1.9C206.7,223.4,208.6,199,222.3,228.7 M238.6,197.1c-2.5,5.8,3.1,11.9,8.9,11.7 C256.2,205.2,243.6,187.1,238.6,197.1 M275.5,198.4c1.2-0.9,2.5-1.6,3.9-2.2c-4.8-6.5-4.6-10.6,3.3-10.8c-1.2-6.3-2.7-10.4-9.2-6.1 c-1.4-4.1-3.3-8.6-5.1-13.1c-8.6,2.1,0.2,10.5,0.9,15.7c-5.6,2.7-3.6,5.9-2.7,10.9c1.5-1.1,3.1-2.3,4.8-3.4 C271.5,192.1,273.2,195.2,275.5,198.4 M190.7,300.2c9.9-1.4,7.1-5.6,5.9-15.1c10-1.7,10.6-5.8,8.9-15.2c-3.3,1-6.9,2.1-10.5,3.2 c-0.8-5.5-1.6-11-2.4-15.4c-3.1,0.7-6.3,1.4-9.5,2.2c2.2,9.4,6,18.5-7.1,19.6c1,4.3,2,8.5,2.9,12.2c3.1-1.1,6.4-2.4,9.8-3.7 C189.5,293.2,190.2,297.6,190.7,300.2 M234.2,260c-1.8,5-1.9,12.9,1.5,16.7C253.1,287.1,245.4,237.1,234.2,260 M280.1,271.8 c8.3-3.6-0.6-13.3-1.4-20.1c6.4-3.5,2.1-9.8,1.1-14.7c-1.4,1.2-3,2.3-4.6,3.3c-1.4-4.7-1.3-7.4-2.4-10.1c-1.7,0.6-3.4,1-5.2,1.2 c0.7,2.5,1.2,5.9,2.7,10.9c-10.4,0.9-5.6,7.5-3.3,14.9c2.3-1.1,4.8-2,7.2-2.8C276.2,260.3,278.4,266.5,280.1,271.8 M299.3,234.4 c-1.3,4.1,0.5,8.7,3.4,11.7C316.2,253.9,308.2,220.8,299.3,234.4"/>
</svg>
