<svg xmlns="http://www.w3.org/2000/svg" width="335" height="323" viewBox="0 0 335 323">
  <defs>
    <style>
      .cls-1 {
        fill: #900;
      }

      .cls-2 {
        fill: #fc0;
      }

      .cls-3 {
        fill: #c90;
      }

      .cls-4 {
        fill: #960;
      }

      .cls-5 {
        fill: #630;
      }

      .cls-6 {
        fill: #999;
      }
    </style>
  </defs>
  <path class="cls-1" d="M145,71l-20,5s-20.3-40.075-18-48S140.383,0.4,177,0s48.03,16.6,48,22c-0.17,30.25-12,52-12,52l-20-8s11.445-18.987,8-37c-0.66-3.454-8.561-7.931-27-5-18.366,2.919-36.329,9.677-37,15C134.483,58.975,145,71,145,71Z"/>
  <path class="cls-2" d="M79,104c-5.156,2.582-85.665,226.06,72,218,69.93-3.575,168.375-34.725,183-63,4.387-49.237-35-82-35-82s7.586-39.387-28-74C225.664,78.138,91.675,100.1,79,104Z"/>
  <path class="cls-3" d="M79,104c-49.723,5.362-54,78-54,78S-5.825,252.725,1,281c5.85,16.575,80.07,44.575,150,41,12.734-61.744-33-101-33-101S133.674,127.341,79,104Z"/>
  <path class="cls-4" d="M63,109s-10.667,33.333-3,90c-7-.333-19.538,6.39-17,29,2.333,17.333,12.667,20.333,21,18s3-71,3-71Z"/>
  <path class="cls-5" d="M91,112c-11.86,19.768-12.472,67.085-13.552,91.639C83.912,205.753,90,210.126,90,218c0,12.15-14.492,28-22.5,28S52,243.15,52,231s7.492-29,15.5-29c0.235,0,.492.015,0.737,0.022C67.481,184.474,70.729,174.358,73,139c1.463-23.887,14-34,14-34s22.621-29.95,94-31,64,8,64,8,26.965,18.335,30.122,25.25C276.4,110.888,243.065,80.31,91,112Z"/>
  <path class="cls-6" d="M87,109c-11.86,19.768-15.472,69.085-16.552,93.639C76.912,204.753,83,209.126,83,217c0,12.15-14.492,28-22.5,28S46,235.15,46,223s6.492-22,14.5-22c0.235,0,.492.015,0.737,0.022A820.1,820.1,0,0,1,62,116c1.462-23.888,9-31,9-31s39.621-22.95,111-24,86,19,86,19l7,27S247.87,73.9,87,109Z"/>
  <path class="cls-4" d="M151,320c0.008,0.006,1.949-13.2,0-32-2.172-20.952-24-57-24-57s21.8,27.8,27,51S151,320,151,320Z"/>
  <path class="cls-4" d="M120,197s-0.01-21.474-4-40-15-35-15-35,15.693,16.735,19,35C123.4,175.773,120,197,120,197Z"/>
  <path class="cls-4" d="M144.024,169.375c2.76-.616,5.642-1.2,8.545-1.725-1.128-5.042-2.091-9.806-2.731-13.362,3.421-.018,6.913.053,10.352,0.124a22.4,22.4,0,0,0-2.765-7.754c-3.228.15-6.519,0.231-9.743,0.318a110.151,110.151,0,0,0-8.395-13.361c-2.337.439-4.621,0.847-6.787,1.247a78.406,78.406,0,0,1,7.709,12.379,82.5,82.5,0,0,0-8.457.791c0.741,2.174.787,4.234,1.165,7.566a70.666,70.666,0,0,1,8.987-1.069c0.562,3.957,1.293,9.262,2.12,14.846m38.881-25.261a25.134,25.134,0,0,0,2.148,8.058c1.128,2.612,2.174,4.217,3.507,5.221a6.083,6.083,0,0,0,4.546,1.332,4.85,4.85,0,0,0,3.54-2.384c0.719-1.517.447-3.7-.932-6.694a26.235,26.235,0,0,0-5.636-7.91c-2.257-2.123-4.1-2.947-5.476-2.445-1.391.487-1.9,2.166-1.695,4.824m48.5,23.352c1.765-.294,3.63-0.606,5.648-0.937a52.047,52.047,0,0,0-3.911-12.155,59.781,59.781,0,0,0,7.06-2.529c-1.943-4.432-4.392-9.581-6.936-14.862-2.382.953-4.7,1.874-6.882,2.786-3.46-7.186-7.207-14.765-10.158-21.206a36.259,36.259,0,0,0-4.787,2.7c3.062,6.47,6.813,13.915,10.177,20.866-1.888,1.011-3.649,2.028-5.379,3,2.369,4.762,4.456,9.194,5.834,12.736,1.906-.554,3.842-1.163,5.9-1.824,2.433,5.649,2.4,8.226,3.344,11.329M256.6,127.719a26.133,26.133,0,0,0,2.489,10.665,26.26,26.26,0,0,0,5.517,8.751c2,1.914,3.655,2.375,5.209,1.736,1.541-.656,2.514-2.24,2.8-5a21.555,21.555,0,0,0-1.54-9.549,24.079,24.079,0,0,0-5.252-8.755c-2.195-2.227-4.26-3.178-6.143-2.84s-2.981,1.923-3.082,4.993M148.362,211.051c-0.539,2.3.439,4.806,2.847,7.66a25.64,25.64,0,0,0,8.953,6.742c3.49,1.585,6.436,2,8.87,1.125s3.617-2.8,3.554-5.8a16.33,16.33,0,0,0-3.458-9.118,14.142,14.142,0,0,0-7.42-5.66,12.708,12.708,0,0,0-8.26.311c-2.676.984-4.539,2.447-5.086,4.741m76.514,19.786c1.712-.688,3.395-1.4,5.074-2.081-3.67-5.557-7.5-11.332-10.347-16.321a56.009,56.009,0,0,1,7.269.02c-1.81-3.145-3.049-5.946-3.28-8.05a82.57,82.57,0,0,0-8.227-1.255,32.839,32.839,0,0,0-3.156-9.866,44.644,44.644,0,0,0-5.97.271,33.439,33.439,0,0,1,2.721,9.421,47.421,47.421,0,0,0-8.333,1.918,95.18,95.18,0,0,0,5.9,10.606,52.625,52.625,0,0,1,7.48-2.284c3.115,5.413,7.125,11.662,10.872,17.621m16.592-31.714a12.066,12.066,0,0,0-.514,5.033,9.841,9.841,0,0,0,4.082,4.961,8.154,8.154,0,0,0,5.445,1.744c1.616-.2,2.284-1.182,2.541-2.749a22.964,22.964,0,0,0,.029-4.937,8.632,8.632,0,0,0-3.358-5.043,7.208,7.208,0,0,0-5.235-1.837c-1.6.2-2.467,1.2-2.99,2.828m37.453,1.378a19.715,19.715,0,0,1,3.975-2.208c-2.246-3.285-3.652-6.3-3.608-8.977a26.554,26.554,0,0,1,7.01-1.816,83.466,83.466,0,0,0-2.615-8.379,26.133,26.133,0,0,0-6.715,2.228c-1.432-4.068-3.312-8.636-5.146-13.113a42.912,42.912,0,0,0-4.626,2.642c2.055,4.523,4.093,9.077,5.549,13.057-1.633,1.188-3.121,2.472-4.625,3.73a23.49,23.49,0,0,1,1.85,7.242c1.573-1.146,3.14-2.3,4.846-3.366,0.1,2.661,1.761,5.714,4.105,8.96M192.733,302.554c2.6-.831,5.2-1.681,7.75-2.49-0.465-3.006-1.061-7.54-1.764-12.688,3.414-1.221,6.786-2.371,9.955-3.361-0.291-3.82-.6-7.891-0.927-11.854-3.389.965-7.03,2.062-10.716,3.223-0.813-5.553-1.675-11.027-2.444-15.448-3.2.7-6.448,1.431-9.611,2.167,0.993,4.711,2.172,10.425,3.294,16.122-3.648,1.212-7.2,2.427-10.5,3.551,1.048,4.3,2.056,8.521,2.9,12.252,3.17-1.141,6.51-2.4,9.913-3.669,0.945,5.126,1.7,9.51,2.148,12.195m44.191-40.308a21.859,21.859,0,0,0-1.2,9.121c0.241,3.321,1.1,5.884,2.688,7.585a4.492,4.492,0,0,0,5.493,1.187c2.028-.9,3.575-2.833,4.465-5.909a20.357,20.357,0,0,0,.182-9.8c-0.695-3.388-1.81-5.746-3.277-7.132a3.353,3.353,0,0,0-4.492-.511c-1.585.968-2.857,2.7-3.86,5.461m46.666,11.787a15.007,15.007,0,0,0,4.2-3.446c-1.694-5.211-3.765-11.112-5.643-16.7a33.666,33.666,0,0,0,4.225-4.459c-1.252-3.733-2.365-7.269-3.119-10.23a34.145,34.145,0,0,1-4.708,3.3c-1.451-4.705-1.3-7.439-2.394-10.107a32.61,32.61,0,0,1-5.249,1.253c0.694,2.48,1.185,5.945,2.777,10.938a30.782,30.782,0,0,0-7.345,2.681c1.132,3.723,2.538,7.96,4.007,12.287a59.659,59.659,0,0,1,7.354-2.819c2,5.843,4.17,11.981,5.9,17.305m19.532-37.523a8.9,8.9,0,0,0,.079,5.968,12.731,12.731,0,0,0,3.351,5.722c1.491,1.374,2.9,1.753,4.314,1.26a4.4,4.4,0,0,0,2.851-3.789,14.478,14.478,0,0,0-.451-6.522,7.784,7.784,0,0,0-2.713-4.478,5.187,5.187,0,0,0-4.418-1.1A4.943,4.943,0,0,0,303.1,236.5"/>
</svg>
