<svg xmlns="http://www.w3.org/2000/svg" viewBox="0 0 835 320" width="100" height="39">
    <path fill="#900" d="M143.7,69.2c0,0-19.7,5-19.7,5s-20-40-17.7-47.9c0.6-22.2,114.7-43.2,116.1-6c-0.2,30.2-11.8,51.9-11.8,51.9 c-33.5-10.2-8.5-8-11.8-44.9C172.2,8.7,112.3,34.4,143.7,69.2z"/>
    <path fill="#FC0" d="M78.8,102.2c-5.1,2.6-84.3,225.5,70.8,217.5c68.8-3.6,165.6-34.6,180-62.8c4.3-49.1-34.4-81.8-34.4-81.8 s7.5-39.3-27.5-73.8C223.1,76.4,91.3,98.3,78.8,102.2z"/>
    <path fill="#C90" d="M77.7,103.1c-48.9,5.3-53.1,77.8-53.1,77.8S-5.7,251.4,1,279.6c5.8,16.5,78.8,43.6,147.6,40.1 c12.5-61.6-32.5-99.9-32.5-99.9S131.5,126.3,77.7,103.1z"/>
    <path fill="#960" d="M271.7,105.4c-3.1-6.9-38.8-31.2-38.8-31.2L63.1,107.1c0,0-10.5,33.3-3,89.8c-6.9-0.3-19.2,6.4-16.7,28.9 c2.3,17.3,5.3,20.6,21,20.6c7.9,0,25.3-18.4,25.3-30.5c0-7.9-6-12.2-12.3-14.3c1.1-24.5,1.7-71.7,13.3-91.4 C240.2,78.5,273,109,271.7,105.4z"/>
    <path fill="#999" d="M86.7,107.1c-11.7,19.7-15.2,68.9-16.3,93.4c6.4,2.1,12.3,6.5,12.3,14.3c0,12.1-14.3,27.9-22.1,27.9 s-14.3-9.8-14.3-21.9c0-12.1,6.4-21.9,14.3-21.9c0.2,0,0.5,0,0.7,0c-1.2-28.3-0.9-56.6,0.8-84.8c1.4-23.8,8.9-30.9,8.9-30.9 s39-22.9,109.2-23.9s84.6,19,84.6,19l6.9,26.9C271.6,105.2,244.9,72.1,86.7,107.1z"/>
    <path fill="#960" d="M142.8,167.4c2.7-0.6,5.6-1.2,8.4-1.7c-1.1-5-2.1-9.8-2.7-13.3c3.4,0,6.8,0.1,10.2,0.1 c-0.3-8.3-5.6-8.2-12.3-7.4c-3.9-6.1-6.3-16.2-14.9-12.1c2.9,3.9,5.4,8,7.6,12.3c-2.8,0.1-5.6,0.4-8.3,0.8c0.7,2.2,0.8,4.2,1.1,7.5 c2.9-0.5,5.9-0.9,8.8-1.1C141.2,156.5,142,161.8,142.8,167.4 M181,142.2c0.1,6.7,6.6,20.3,13.5,12.2 C197.9,148.9,181.4,128,181,142.2 M228.7,165.5c1.7-0.3,3.6-0.6,5.6-0.9c-0.8-4.2-2.1-8.3-3.8-12.1c2.4-0.7,4.7-1.5,6.9-2.5 c-1.9-4.4-4.3-9.6-6.8-14.8c-2.3,1-4.6,1.9-6.8,2.8c-3.4-7.2-7.1-14.7-10-21.2c-10.1,3.3,3.7,15.9,5.3,23.5c-1.9,1-3.6,2-5.3,3 c2.3,4.8,4.4,9.2,5.7,12.7c1.9-0.6,3.8-1.2,5.8-1.8C227.8,159.7,227.7,162.3,228.7,165.5 M253.5,125.8c0.5,7.2,4.5,21.5,13,21.1 C276.7,141.4,258.4,108.7,253.5,125.8 M147,208.9c-1.9,9.5,22.4,24.6,23.8,9.7C171.3,206.7,153.2,196.6,147,208.9 M222.3,228.7 c1.7-0.7,3.3-1.4,5-2.1c-3.6-5.5-7.4-11.3-10.2-16.3c2.4-0.2,4.8-0.1,7.2,0c-3.1-7.2-3.8-9.4-11.3-9.3c-0.9-5.6-2-11.9-9-9.6 c1.3,3,2.2,6.1,2.7,9.4c-2.8,0.4-5.5,1-8.2,1.9C206.7,223.4,208.6,199,222.3,228.7 M238.6,197.1c-2.5,5.8,3.1,11.9,8.9,11.7 C256.2,205.2,243.6,187.1,238.6,197.1 M275.5,198.4c1.2-0.9,2.5-1.6,3.9-2.2c-4.8-6.5-4.6-10.6,3.3-10.8c-1.2-6.3-2.7-10.4-9.2-6.1 c-1.4-4.1-3.3-8.6-5.1-13.1c-8.6,2.1,0.2,10.5,0.9,15.7c-5.6,2.7-3.6,5.9-2.7,10.9c1.5-1.1,3.1-2.3,4.8-3.4 C271.5,192.1,273.2,195.2,275.5,198.4 M190.7,300.2c9.9-1.4,7.1-5.6,5.9-15.1c10-1.7,10.6-5.8,8.9-15.2c-3.3,1-6.9,2.1-10.5,3.2 c-0.8-5.5-1.6-11-2.4-15.4c-3.1,0.7-6.3,1.4-9.5,2.2c2.2,9.4,6,18.5-7.1,19.6c1,4.3,2,8.5,2.9,12.2c3.1-1.1,6.4-2.4,9.8-3.7 C189.5,293.2,190.2,297.6,190.7,300.2 M234.2,260c-1.8,5-1.9,12.9,1.5,16.7C253.1,287.1,245.4,237.1,234.2,260 M280.1,271.8 c8.3-3.6-0.6-13.3-1.4-20.1c6.4-3.5,2.1-9.8,1.1-14.7c-1.4,1.2-3,2.3-4.6,3.3c-1.4-4.7-1.3-7.4-2.4-10.1c-1.7,0.6-3.4,1-5.2,1.2 c0.7,2.5,1.2,5.9,2.7,10.9c-10.4,0.9-5.6,7.5-3.3,14.9c2.3-1.1,4.8-2,7.2-2.8C276.2,260.3,278.4,266.5,280.1,271.8 M299.3,234.4 c-1.3,4.1,0.5,8.7,3.4,11.7C316.2,253.9,308.2,220.8,299.3,234.4"/>
    <g transform="translate(20 0)">
        <path fill="#000" d="M 387.895 229.532 Q 377.695 229.532 371.545 224.057 Q 365.395 218.582 365.395 209.132 L 368.095 212.282 L 365.395 212.282 L 365.395 228.032 L 351.895 228.032 L 351.895 118.532 L 365.395 118.532 L 365.395 142.532 L 365.095 161.282 L 368.095 161.282 L 365.395 164.432 Q 365.395 155.132 371.62 149.582 Q 377.845 144.032 387.895 144.032 Q 400.345 144.032 407.845 152.282 Q 415.345 160.532 415.345 174.782 L 415.345 198.932 Q 415.345 213.032 407.845 221.282 Q 400.345 229.532 387.895 229.532 Z M 383.395 217.832 Q 391.945 217.832 396.895 212.732 Q 401.845 207.632 401.845 198.032 L 401.845 175.532 Q 401.845 165.932 396.895 160.832 Q 391.945 155.732 383.395 155.732 Q 375.145 155.732 370.27 160.982 Q 365.395 166.232 365.395 175.532 L 365.395 198.032 Q 365.395 207.332 370.27 212.582 Q 375.145 217.832 383.395 217.832 Z M 455.86 229.532 Q 442.81 229.532 435.31 222.857 Q 427.81 216.182 427.81 204.782 Q 427.81 193.232 435.31 186.632 Q 442.81 180.032 455.56 180.032 L 481.06 180.032 L 481.06 171.782 Q 481.06 164.132 476.485 160.007 Q 471.91 155.882 463.51 155.882 Q 456.16 155.882 451.21 158.957 Q 446.26 162.032 445.51 167.282 L 432.01 167.282 Q 433.36 156.632 442.06 150.332 Q 450.76 144.032 463.81 144.032 Q 478.06 144.032 486.31 151.382 Q 494.56 158.732 494.56 171.332 L 494.56 228.032 L 481.36 228.032 L 481.36 212.282 L 479.11 212.282 L 481.36 210.032 Q 481.36 219.032 474.385 224.282 Q 467.41 229.532 455.86 229.532 Z M 459.16 218.882 Q 468.76 218.882 474.91 214.082 Q 481.06 209.282 481.06 201.782 L 481.06 190.082 L 455.86 190.082 Q 449.11 190.082 445.21 193.832 Q 441.31 197.582 441.31 204.032 Q 441.31 210.932 446.035 214.907 Q 450.76 218.882 459.16 218.882 Z M 522.212 255.032 L 522.212 242.732 L 548.462 242.732 Q 554.762 242.732 557.687 239.882 Q 560.612 237.032 560.612 231.032 L 560.612 220.532 L 560.912 205.532 L 558.212 205.532 L 560.762 203.282 Q 560.762 212.282 554.762 217.532 Q 548.762 222.782 538.712 222.782 Q 525.962 222.782 518.612 214.457 Q 511.262 206.132 511.262 192.032 L 511.262 174.632 Q 511.262 160.532 518.612 152.282 Q 525.962 144.032 538.712 144.032 Q 548.762 144.032 554.762 149.282 Q 560.762 154.532 560.762 163.532 L 558.212 161.282 L 560.762 161.282 L 560.762 145.532 L 574.112 145.532 L 574.112 231.032 Q 574.112 242.132 567.287 248.582 Q 560.462 255.032 548.312 255.032 Z M 542.762 211.082 Q 551.162 211.082 555.962 205.832 Q 560.762 200.582 560.762 191.282 L 560.762 175.532 Q 560.762 166.232 555.962 160.982 Q 551.162 155.732 542.762 155.732 Q 534.212 155.732 529.487 160.832 Q 524.762 165.932 524.762 175.532 L 524.762 191.282 Q 524.762 200.882 529.487 205.982 Q 534.212 211.082 542.762 211.082 Z M 602.177 255.032 L 602.177 242.732 L 628.427 242.732 Q 634.727 242.732 637.652 239.882 Q 640.577 237.032 640.577 231.032 L 640.577 220.532 L 640.877 205.532 L 638.177 205.532 L 640.727 203.282 Q 640.727 212.282 634.727 217.532 Q 628.727 222.782 618.677 222.782 Q 605.927 222.782 598.577 214.457 Q 591.227 206.132 591.227 192.032 L 591.227 174.632 Q 591.227 160.532 598.577 152.282 Q 605.927 144.032 618.677 144.032 Q 628.727 144.032 634.727 149.282 Q 640.727 154.532 640.727 163.532 L 638.177 161.282 L 640.727 161.282 L 640.727 145.532 L 654.077 145.532 L 654.077 231.032 Q 654.077 242.132 647.252 248.582 Q 640.427 255.032 628.277 255.032 Z M 622.727 211.082 Q 631.127 211.082 635.927 205.832 Q 640.727 200.582 640.727 191.282 L 640.727 175.532 Q 640.727 166.232 635.927 160.982 Q 631.127 155.732 622.727 155.732 Q 614.177 155.732 609.452 160.832 Q 604.727 165.932 604.727 175.532 L 604.727 191.282 Q 604.727 200.882 609.452 205.982 Q 614.177 211.082 622.727 211.082 Z M 670.779 228.032 L 670.779 215.732 L 700.029 215.732 L 700.029 157.832 L 674.529 157.832 L 674.529 145.532 L 713.529 145.532 L 713.529 215.732 L 741.279 215.732 L 741.279 228.032 Z M 705.279 130.682 Q 700.329 130.682 697.479 128.132 Q 694.629 125.582 694.629 121.232 Q 694.629 116.732 697.479 114.107 Q 700.329 111.482 705.279 111.482 Q 710.229 111.482 713.079 114.107 Q 715.929 116.732 715.929 121.232 Q 715.929 125.582 713.079 128.132 Q 710.229 130.682 705.279 130.682 Z M 783.031 229.532 Q 773.281 229.532 766.006 225.632 Q 758.731 221.732 754.756 214.607 Q 750.781 207.482 750.781 198.032 L 750.781 175.532 Q 750.781 165.932 754.756 158.882 Q 758.731 151.832 766.006 147.932 Q 773.281 144.032 783.031 144.032 Q 792.781 144.032 800.056 147.932 Q 807.331 151.832 811.306 158.882 Q 815.281 165.932 815.281 175.532 L 815.281 190.082 L 763.981 190.082 L 763.981 198.032 Q 763.981 207.782 768.931 212.957 Q 773.881 218.132 783.031 218.132 Q 790.831 218.132 795.631 215.357 Q 800.431 212.582 801.481 207.032 L 814.981 207.032 Q 813.631 217.382 804.856 223.457 Q 796.081 229.532 783.031 229.532 Z M 802.081 181.082 L 802.081 175.532 Q 802.081 165.782 797.206 160.532 Q 792.331 155.282 783.031 155.282 Q 773.881 155.282 768.931 160.532 Q 763.981 165.782 763.981 175.532 L 763.981 179.882 L 803.131 179.882 Z" />
    </g>
</svg>
